<?xml version="1.0" encoding="iso-8859-1"?>
<!-- Uploaded to: SVG Repo, www.svgrepo.com, Generator: SVG Repo Mixer Tools -->
<svg version="1.1" id="Layer_1" xmlns="http://www.w3.org/2000/svg" xmlns:xlink="http://www.w3.org/1999/xlink" 
	 viewBox="0 0 512 512" xml:space="preserve">
<rect x="296" y="328" style="fill:#67C18C;" width="192" height="96"/>
<g>
	<path style="fill:#FFFFFF;" d="M415.264,263.48c-33.528-20.704-78.192-20.48-111.504,0.64
		c-1.88-66.784-15.552-133.592-39.824-165.216C344.904,113.144,407.832,180.392,415.264,263.48z"/>
	<path style="fill:#FFFFFF;" d="M48.736,263.48c7.432-83.08,70.36-150.328,151.328-164.576
		c-24.272,31.624-37.944,98.432-39.824,165.216C126.928,242.984,82.264,242.768,48.736,263.48z"/>
	<path style="fill:#FFFFFF;" d="M176.272,263.864C179.032,164.176,206.856,96,232,96s52.968,68.176,55.728,167.864
		c-14.424-9.032-30.912-14.184-47.728-15.416V248h-16v0.448C207.192,249.68,190.696,254.832,176.272,263.864z"/>
</g>
<g>
	<path style="fill:#DCDDDE;" d="M424,280c-17.92-16.24-41.52-24.24-65.04-24C351.12,161.28,297.28,88,232,88C338,88,424,174,424,280
		z"/>
	<path style="fill:#DCDDDE;" d="M232,88c-35.36,0-64,86-64,192c-17.44-15.76-40.08-23.76-62.96-24C112.88,161.28,166.72,88,232,88z"
		/>
	<path style="fill:#DCDDDE;" d="M296,280c-17.68-16-40.8-24-64-24V88C267.36,88,296,174,296,280z"/>
</g>
<g>
	<circle style="fill:#FFD768;" cx="136" cy="352" r="40"/>
	<circle style="fill:#FFD768;" cx="48" cy="408" r="32"/>
	<circle style="fill:#FFD768;" cx="120" cy="472" r="24"/>
</g>
<g>
	<rect x="440" y="368" style="fill:#FFFFFF;" width="16" height="16"/>
	<rect x="328" y="368" style="fill:#FFFFFF;" width="16" height="16"/>
</g>
<g>
	<rect x="408" y="40" style="fill:#0C3847;" width="16" height="96"/>
	<rect x="40" y="40" style="fill:#0C3847;" width="16" height="96"/>
	<rect x="88" style="fill:#0C3847;" width="16" height="80"/>
	<rect x="360" y="56" style="fill:#0C3847;" width="16" height="40"/>
	<rect x="184" y="8" style="fill:#0C3847;" width="16" height="32"/>
	<rect x="136" y="32" style="fill:#0C3847;" width="16" height="40"/>
	<rect x="312" y="8" style="fill:#0C3847;" width="16" height="56"/>
	<path style="fill:#0C3847;" d="M288,472c0,13.232-10.768,24-24,24s-24-10.768-24-24V264.328c18.4,1.6,36.32,8.752,50.424,21.424
		l5.016,5.544l0.56-0.512l0.56,0.512l5.016-5.544c32.352-29.08,84.784-29.032,117.056,0.176L432,298.032V280
		c0-107.6-85.416-195.576-192-199.8V56h-16v24.2C117.416,84.424,32,172.4,32,280v18.032l13.368-12.104
		c32.264-29.2,84.704-29.256,117.056-0.176l5.016,5.544l0.56-0.512l0.56,0.512l5.016-5.544C187.68,273.08,205.6,265.928,224,264.328
		V472c0,22.056,17.944,40,40,40s40-17.944,40-40v-8h-16V472z M415.264,263.48c-33.528-20.704-78.192-20.48-111.504,0.64
		c-1.88-66.784-15.552-133.592-39.824-165.216C344.904,113.144,407.832,180.392,415.264,263.48z M48.736,263.48
		c7.432-83.08,70.36-150.328,151.328-164.576c-24.272,31.624-37.944,98.432-39.824,165.216
		C126.928,242.984,82.264,242.768,48.736,263.48z M176.272,263.864C179.032,164.176,206.856,96,232,96s52.968,68.176,55.728,167.864
		c-14.424-9.032-30.912-14.184-47.728-15.416V248h-16v0.448C207.192,249.68,190.696,254.832,176.272,263.864z"/>
	<path style="fill:#0C3847;" d="M392,344c-17.648,0-32,14.352-32,32s14.352,32,32,32s32-14.352,32-32S409.648,344,392,344z M392,392
		c-8.824,0-16-7.176-16-16s7.176-16,16-16s16,7.176,16,16S400.824,392,392,392z"/>
	<path style="fill:#0C3847;" d="M280,312v128h224V312H280z M456.448,421.36l-0.92,2.64H328.52l-1.016-2.76
		c-4.712-12.832-16.32-24.408-28.864-28.8l-2.64-0.912v-31l2.76-1.016c12.84-4.72,24.408-16.32,28.792-28.864l0.92-2.648h127
		l1.016,2.76c4.712,12.832,16.32,24.408,28.864,28.8l2.648,0.912v31l-2.76,1.016C472.4,397.208,460.832,408.816,456.448,421.36z
		 M488,343.312c-6.208-3.04-12.072-8.92-15.272-15.312H488V343.312z M311.312,328c-3.04,6.208-8.92,12.072-15.312,15.272V328
		H311.312z M296,408.688c6.208,3.04,12.072,8.92,15.272,15.312H296V408.688z M472.688,424c3.04-6.208,8.92-12.072,15.312-15.272V424
		H472.688z"/>
	<path style="fill:#0C3847;" d="M136,304c-26.472,0-48,21.528-48,48s21.528,48,48,48s48-21.528,48-48S162.472,304,136,304z M136,384
		c-17.648,0-32-14.352-32-32s14.352-32,32-32s32,14.352,32,32S153.648,384,136,384z"/>
	<path style="fill:#0C3847;" d="M48,368c-22.056,0-40,17.944-40,40s17.944,40,40,40s40-17.944,40-40S70.056,368,48,368z M48,432
		c-13.232,0-24-10.768-24-24s10.768-24,24-24s24,10.768,24,24S61.232,432,48,432z"/>
	<path style="fill:#0C3847;" d="M120,440c-17.648,0-32,14.352-32,32s14.352,32,32,32s32-14.352,32-32S137.648,440,120,440z M120,488
		c-8.824,0-16-7.176-16-16s7.176-16,16-16s16,7.176,16,16S128.824,488,120,488z"/>
</g>
<circle style="fill:#FFFFFF;" cx="392" cy="376" r="16"/>
</svg>