<?xml version="1.0" encoding="iso-8859-1"?>
<!-- Uploaded to: SVG Repo, www.svgrepo.com, Generator: SVG Repo Mixer Tools -->
<svg version="1.1" id="Layer_1" xmlns="http://www.w3.org/2000/svg" xmlns:xlink="http://www.w3.org/1999/xlink" 
	 viewBox="0 0 512 512" xml:space="preserve">
<path style="fill:#A72B1A;" d="M505.105,196.794C478.387,83.958,377.004,0,256,0C114.615,0,0,114.615,0,256
	c0,117.77,79.533,216.951,187.813,246.802L505.105,196.794z"/>
<path style="fill:#701C12;" d="M512,256c0-20.381-2.394-40.201-6.895-59.206l-71.018-71.018l-7.188,3.942l-70.725-70.725
	l-45.913,109.913L200.348,58.994L55.652,370.641l132.161,132.161C209.525,508.787,232.386,512,256,512
	C397.385,512,512,397.384,512,256z"/>
<polygon style="fill:#F9BE02;" points="244.87,359.511 244.87,404.033 378.435,392.902 378.435,359.511 "/>
<polygon style="fill:#FBD867;" points="256,359.511 133.565,359.511 133.565,392.902 256,404.033 "/>
<polygon style="fill:#FEF2CC;" points="456.348,170.298 456.348,370.646 378.435,370.646 367.304,359.515 356.174,370.646 
	333.913,370.646 322.783,359.515 311.652,370.646 289.391,370.646 256,359.515 189.217,138.843 "/>
<polygon style="fill:#FFFFFF;" points="55.652,170.298 55.652,370.641 133.565,370.641 144.696,359.511 155.826,370.641 
	178.087,370.641 189.217,359.511 200.348,370.641 222.609,370.641 256,359.511 256,114.641 "/>
<polygon style="fill:#40D2BE;" points="289.391,303.859 256,326.114 222.609,303.859 222.609,281.598 289.391,281.598 "/>
<polygon style="fill:#A72B1A;" points="289.391,303.863 289.391,370.646 256,370.646 244.87,353.95 256,303.863 "/>
<rect x="222.609" y="303.861" style="fill:#C73926;" width="33.391" height="66.783"/>
<polygon style="fill:#40D2BE;" points="400.695,192.554 386.265,225.946 400.695,259.337 434.086,259.337 434.086,192.554 "/>
<rect x="367.304" y="192.557" style="fill:#7DDCD4;" width="33.391" height="66.783"/>
<polygon style="fill:#40D2BE;" points="400.695,281.598 386.265,314.989 400.695,348.38 434.086,348.38 434.086,281.598 "/>
<rect x="367.304" y="281.6" style="fill:#7DDCD4;" width="33.391" height="66.783"/>
<polygon style="fill:#F63341;" points="155.826,58.994 155.826,81.254 178.088,94.052 200.348,81.254 200.348,58.994 "/>
<polygon style="fill:#F85C67;" points="178.087,81.254 166.957,170.298 200.348,170.298 200.348,81.254 "/>
<rect x="155.826" y="81.252" style="fill:#F97D85;" width="22.261" height="89.043"/>
<polygon style="fill:#C92B31;" points="311.652,58.994 311.652,81.254 333.913,94.052 356.174,81.254 356.174,58.994 "/>
<polygon style="fill:#F63341;" points="333.913,81.254 322.783,170.298 356.174,170.298 356.174,81.254 "/>
<rect x="311.652" y="81.252" style="fill:#F85C67;" width="22.261" height="89.043"/>
<polygon style="fill:#7DDCD4;" points="111.304,192.554 96.875,225.946 111.304,259.337 144.696,259.337 144.696,192.554 "/>
<rect x="77.913" y="192.557" style="fill:#B1EAE5;" width="33.391" height="66.783"/>
<polygon style="fill:#7DDCD4;" points="256,192.554 241.57,225.946 256,259.337 289.391,259.337 289.391,192.554 "/>
<rect x="222.609" y="192.557" style="fill:#B1EAE5;" width="33.391" height="66.783"/>
<polygon style="fill:#7DDCD4;" points="111.304,281.598 96.875,314.989 111.304,348.38 144.696,348.38 144.696,281.598 "/>
<rect x="77.913" y="281.6" style="fill:#B1EAE5;" width="33.391" height="66.783"/>
<polygon style="fill:#FEF2CC;" points="434.087,148.037 311.652,159.167 311.652,125.776 434.087,125.776 "/>
<polygon style="fill:#FFFFFF;" points="211.478,125.776 211.478,159.167 77.913,148.037 77.913,125.776 "/>
<polygon style="fill:#F63341;" points="456.348,170.298 378.435,170.298 311.652,148.037 456.348,148.037 "/>
<polygon style="fill:#F85C67;" points="211.478,148.037 133.565,170.298 55.652,170.298 55.652,148.037 "/>
<polygon style="fill:#FBD867;" points="256,392.902 233.739,404.033 256,415.163 400.696,415.163 400.696,392.902 "/>
<rect x="111.304" y="392.904" style="fill:#FDE59A;" width="144.696" height="22.261"/>
<polygon style="fill:#02967D;" points="256,437.424 233.739,448.554 256,459.685 311.652,459.685 311.652,437.424 "/>
<rect x="200.348" y="437.426" style="fill:#02AF92;" width="55.652" height="22.261"/>
<g>
	<polygon style="fill:#FDE59A;" points="200.348,370.646 178.087,370.646 178.087,170.298 200.348,159.167 	"/>
	<polygon style="fill:#FDE59A;" points="155.826,370.646 133.565,370.646 133.565,170.298 155.826,159.167 	"/>
</g>
<g>
	<polygon style="fill:#FBD867;" points="356.174,370.646 378.435,370.646 378.435,170.298 356.174,159.167 	"/>
	<polygon style="fill:#FBD867;" points="311.652,370.646 333.913,370.646 333.913,170.298 311.652,159.167 	"/>
</g>
<polygon style="fill:#FDE59A;" points="233.739,136.907 256,170.298 378.435,170.298 378.435,148.037 "/>
<polygon style="fill:#FEF2CC;" points="256,136.907 133.565,148.037 133.565,170.298 256,170.298 "/>
<polygon style="fill:#FBD867;" points="378.435,148.037 256,148.037 235.223,116.872 256,85.707 "/>
<polygon style="fill:#FDE59A;" points="256,85.707 256,148.037 133.565,148.037 "/>
</svg>